<mxfile host="Electron" agent="Mozilla/5.0 (Windows NT 10.0; Win64; x64) AppleWebKit/537.36 (KHTML, like Gecko) draw.io/28.0.6 Chrome/138.0.7204.100 Electron/37.2.3 Safari/537.36" version="28.0.6">
  <diagram name="Page-1" id="TQaqRPs2xN0WM8CDjYO9">
    <mxGraphModel dx="1572" dy="1264" grid="0" gridSize="10" guides="1" tooltips="1" connect="1" arrows="1" fold="1" page="1" pageScale="1" pageWidth="3300" pageHeight="2339" math="0" shadow="0">
      <root>
        <mxCell id="0" />
        <mxCell id="1" parent="0" />
        <mxCell id="xtmyJrNdlUx_TboR2gxm-136" value="" style="endArrow=none;html=1;rounded=0;entryX=0;entryY=0.75;entryDx=0;entryDy=0;" parent="1" target="xtmyJrNdlUx_TboR2gxm-96" edge="1">
          <mxGeometry width="50" height="50" relative="1" as="geometry">
            <mxPoint x="510.6666259765625" y="972" as="sourcePoint" />
            <mxPoint x="557" y="1152" as="targetPoint" />
          </mxGeometry>
        </mxCell>
        <mxCell id="xtmyJrNdlUx_TboR2gxm-137" value="" style="endArrow=classic;html=1;rounded=0;exitX=1;exitY=0.5;exitDx=0;exitDy=0;entryX=0.5;entryY=1;entryDx=0;entryDy=0;" parent="1" source="xtmyJrNdlUx_TboR2gxm-113" target="xtmyJrNdlUx_TboR2gxm-18" edge="1">
          <mxGeometry width="50" height="50" relative="1" as="geometry">
            <mxPoint x="1334" y="580" as="sourcePoint" />
            <mxPoint x="1384" y="530" as="targetPoint" />
          </mxGeometry>
        </mxCell>
        <mxCell id="xtmyJrNdlUx_TboR2gxm-134" value="" style="endArrow=classic;html=1;rounded=0;exitX=1;exitY=0.5;exitDx=0;exitDy=0;entryX=0.25;entryY=1;entryDx=0;entryDy=0;" parent="1" source="xtmyJrNdlUx_TboR2gxm-129" target="xtmyJrNdlUx_TboR2gxm-1" edge="1">
          <mxGeometry width="50" height="50" relative="1" as="geometry">
            <mxPoint x="1334" y="580" as="sourcePoint" />
            <mxPoint x="1384" y="530" as="targetPoint" />
          </mxGeometry>
        </mxCell>
        <mxCell id="xtmyJrNdlUx_TboR2gxm-112" value="" style="endArrow=none;html=1;rounded=0;entryX=0.5;entryY=1;entryDx=0;entryDy=0;exitX=1;exitY=0.5;exitDx=0;exitDy=0;" parent="1" source="xtmyJrNdlUx_TboR2gxm-109" target="xtmyJrNdlUx_TboR2gxm-18" edge="1">
          <mxGeometry width="50" height="50" relative="1" as="geometry">
            <mxPoint x="1336" y="690" as="sourcePoint" />
            <mxPoint x="1386" y="640" as="targetPoint" />
          </mxGeometry>
        </mxCell>
        <mxCell id="xtmyJrNdlUx_TboR2gxm-1" value="USER" style="rounded=0;whiteSpace=wrap;html=1;" parent="1" vertex="1">
          <mxGeometry x="915" y="155" width="120" height="60" as="geometry" />
        </mxCell>
        <mxCell id="xtmyJrNdlUx_TboR2gxm-2" value="Name" style="ellipse;whiteSpace=wrap;html=1;" parent="1" vertex="1">
          <mxGeometry x="850" y="27" width="91" height="47" as="geometry" />
        </mxCell>
        <mxCell id="xtmyJrNdlUx_TboR2gxm-3" value="Password" style="ellipse;whiteSpace=wrap;html=1;" parent="1" vertex="1">
          <mxGeometry x="969" y="29" width="91" height="47" as="geometry" />
        </mxCell>
        <mxCell id="xtmyJrNdlUx_TboR2gxm-4" value="Role" style="ellipse;whiteSpace=wrap;html=1;" parent="1" vertex="1">
          <mxGeometry x="1068" y="84" width="91" height="47" as="geometry" />
        </mxCell>
        <mxCell id="xtmyJrNdlUx_TboR2gxm-5" value="REGISTERATION_DATE" style="ellipse;whiteSpace=wrap;html=1;" parent="1" vertex="1">
          <mxGeometry x="1056" y="165" width="155" height="47" as="geometry" />
        </mxCell>
        <mxCell id="xtmyJrNdlUx_TboR2gxm-6" value="Email" style="ellipse;whiteSpace=wrap;html=1;" parent="1" vertex="1">
          <mxGeometry x="800" y="185" width="91" height="47" as="geometry" />
        </mxCell>
        <mxCell id="xtmyJrNdlUx_TboR2gxm-7" value="&lt;u&gt;UserID&lt;/u&gt;" style="ellipse;whiteSpace=wrap;html=1;" parent="1" vertex="1">
          <mxGeometry x="810" y="93" width="91" height="47" as="geometry" />
        </mxCell>
        <mxCell id="xtmyJrNdlUx_TboR2gxm-8" value="Phone_no" style="ellipse;whiteSpace=wrap;html=1;" parent="1" vertex="1">
          <mxGeometry x="837" y="267" width="91" height="47" as="geometry" />
        </mxCell>
        <mxCell id="xtmyJrNdlUx_TboR2gxm-9" value="" style="endArrow=none;html=1;rounded=0;exitX=0;exitY=0;exitDx=0;exitDy=0;entryX=1;entryY=1;entryDx=0;entryDy=0;" parent="1" source="xtmyJrNdlUx_TboR2gxm-1" target="xtmyJrNdlUx_TboR2gxm-7" edge="1">
          <mxGeometry width="50" height="50" relative="1" as="geometry">
            <mxPoint x="1357" y="454" as="sourcePoint" />
            <mxPoint x="1407" y="404" as="targetPoint" />
          </mxGeometry>
        </mxCell>
        <mxCell id="xtmyJrNdlUx_TboR2gxm-12" value="" style="endArrow=none;html=1;rounded=0;exitX=1;exitY=0;exitDx=0;exitDy=0;entryX=0;entryY=0.5;entryDx=0;entryDy=0;" parent="1" source="xtmyJrNdlUx_TboR2gxm-1" target="xtmyJrNdlUx_TboR2gxm-4" edge="1">
          <mxGeometry width="50" height="50" relative="1" as="geometry">
            <mxPoint x="1357" y="454" as="sourcePoint" />
            <mxPoint x="1407" y="404" as="targetPoint" />
          </mxGeometry>
        </mxCell>
        <mxCell id="xtmyJrNdlUx_TboR2gxm-13" value="" style="endArrow=none;html=1;rounded=0;exitX=0;exitY=1;exitDx=0;exitDy=0;entryX=0.5;entryY=0;entryDx=0;entryDy=0;" parent="1" source="xtmyJrNdlUx_TboR2gxm-1" target="xtmyJrNdlUx_TboR2gxm-8" edge="1">
          <mxGeometry width="50" height="50" relative="1" as="geometry">
            <mxPoint x="1357" y="454" as="sourcePoint" />
            <mxPoint x="1407" y="404" as="targetPoint" />
          </mxGeometry>
        </mxCell>
        <mxCell id="xtmyJrNdlUx_TboR2gxm-14" value="" style="endArrow=none;html=1;rounded=0;exitX=0.25;exitY=0;exitDx=0;exitDy=0;entryX=1;entryY=1;entryDx=0;entryDy=0;" parent="1" source="xtmyJrNdlUx_TboR2gxm-1" target="xtmyJrNdlUx_TboR2gxm-2" edge="1">
          <mxGeometry width="50" height="50" relative="1" as="geometry">
            <mxPoint x="1357" y="454" as="sourcePoint" />
            <mxPoint x="1407" y="404" as="targetPoint" />
          </mxGeometry>
        </mxCell>
        <mxCell id="xtmyJrNdlUx_TboR2gxm-15" value="" style="endArrow=none;html=1;rounded=0;exitX=0.5;exitY=0;exitDx=0;exitDy=0;entryX=0.5;entryY=1;entryDx=0;entryDy=0;" parent="1" source="xtmyJrNdlUx_TboR2gxm-1" target="xtmyJrNdlUx_TboR2gxm-3" edge="1">
          <mxGeometry width="50" height="50" relative="1" as="geometry">
            <mxPoint x="1357" y="454" as="sourcePoint" />
            <mxPoint x="1407" y="404" as="targetPoint" />
          </mxGeometry>
        </mxCell>
        <mxCell id="xtmyJrNdlUx_TboR2gxm-16" value="" style="endArrow=none;html=1;rounded=0;exitX=0;exitY=0.5;exitDx=0;exitDy=0;entryX=1;entryY=0;entryDx=0;entryDy=0;" parent="1" source="xtmyJrNdlUx_TboR2gxm-1" target="xtmyJrNdlUx_TboR2gxm-6" edge="1">
          <mxGeometry width="50" height="50" relative="1" as="geometry">
            <mxPoint x="1357" y="454" as="sourcePoint" />
            <mxPoint x="1407" y="404" as="targetPoint" />
          </mxGeometry>
        </mxCell>
        <mxCell id="xtmyJrNdlUx_TboR2gxm-17" value="" style="endArrow=none;html=1;rounded=0;exitX=1;exitY=0.75;exitDx=0;exitDy=0;entryX=0;entryY=0.5;entryDx=0;entryDy=0;" parent="1" source="xtmyJrNdlUx_TboR2gxm-1" target="xtmyJrNdlUx_TboR2gxm-5" edge="1">
          <mxGeometry width="50" height="50" relative="1" as="geometry">
            <mxPoint x="1357" y="454" as="sourcePoint" />
            <mxPoint x="1407" y="404" as="targetPoint" />
          </mxGeometry>
        </mxCell>
        <mxCell id="xtmyJrNdlUx_TboR2gxm-18" value="PROPERTY" style="rounded=0;whiteSpace=wrap;html=1;" parent="1" vertex="1">
          <mxGeometry x="1537" y="152" width="120" height="60" as="geometry" />
        </mxCell>
        <mxCell id="xtmyJrNdlUx_TboR2gxm-19" value="Description" style="ellipse;whiteSpace=wrap;html=1;" parent="1" vertex="1">
          <mxGeometry x="1438" y="88" width="90" height="47.5" as="geometry" />
        </mxCell>
        <mxCell id="xtmyJrNdlUx_TboR2gxm-20" value="&lt;u&gt;PropertyID&lt;/u&gt;" style="ellipse;whiteSpace=wrap;html=1;" parent="1" vertex="1">
          <mxGeometry x="1544" y="69" width="106" height="52" as="geometry" />
        </mxCell>
        <mxCell id="xtmyJrNdlUx_TboR2gxm-21" value="OwnerID" style="ellipse;whiteSpace=wrap;html=1;" parent="1" vertex="1">
          <mxGeometry x="1664" y="93" width="70" height="40" as="geometry" />
        </mxCell>
        <mxCell id="xtmyJrNdlUx_TboR2gxm-22" value="Name" style="ellipse;whiteSpace=wrap;html=1;" parent="1" vertex="1">
          <mxGeometry x="1693" y="164" width="70" height="36" as="geometry" />
        </mxCell>
        <mxCell id="xtmyJrNdlUx_TboR2gxm-23" value="Type" style="ellipse;whiteSpace=wrap;html=1;" parent="1" vertex="1">
          <mxGeometry x="1689.5" y="212" width="77" height="32" as="geometry" />
        </mxCell>
        <mxCell id="xtmyJrNdlUx_TboR2gxm-24" value="Address" style="ellipse;whiteSpace=wrap;html=1;" parent="1" vertex="1">
          <mxGeometry x="1686" y="274" width="90" height="38" as="geometry" />
        </mxCell>
        <mxCell id="xtmyJrNdlUx_TboR2gxm-25" value="Total Rooms" style="ellipse;whiteSpace=wrap;html=1;" parent="1" vertex="1">
          <mxGeometry x="1342" y="108" width="87" height="44" as="geometry" />
        </mxCell>
        <mxCell id="xtmyJrNdlUx_TboR2gxm-26" value="Country" style="ellipse;whiteSpace=wrap;html=1;" parent="1" vertex="1">
          <mxGeometry x="1339" y="174" width="99" height="38" as="geometry" />
        </mxCell>
        <mxCell id="xtmyJrNdlUx_TboR2gxm-27" value="State" style="ellipse;whiteSpace=wrap;html=1;" parent="1" vertex="1">
          <mxGeometry x="1350" y="230" width="118" height="34" as="geometry" />
        </mxCell>
        <mxCell id="xtmyJrNdlUx_TboR2gxm-28" value="City" style="ellipse;whiteSpace=wrap;html=1;" parent="1" vertex="1">
          <mxGeometry x="1405" y="282" width="104.5" height="39" as="geometry" />
        </mxCell>
        <mxCell id="xtmyJrNdlUx_TboR2gxm-29" value="" style="endArrow=none;html=1;rounded=0;entryX=0.5;entryY=0;entryDx=0;entryDy=0;" parent="1" target="xtmyJrNdlUx_TboR2gxm-18" edge="1">
          <mxGeometry width="50" height="50" relative="1" as="geometry">
            <mxPoint x="1597" y="124" as="sourcePoint" />
            <mxPoint x="1407" y="404" as="targetPoint" />
          </mxGeometry>
        </mxCell>
        <mxCell id="xtmyJrNdlUx_TboR2gxm-30" value="" style="endArrow=none;html=1;rounded=0;entryX=1;entryY=0.5;entryDx=0;entryDy=0;exitX=0;exitY=0.5;exitDx=0;exitDy=0;" parent="1" source="xtmyJrNdlUx_TboR2gxm-22" target="xtmyJrNdlUx_TboR2gxm-18" edge="1">
          <mxGeometry width="50" height="50" relative="1" as="geometry">
            <mxPoint x="1357" y="454" as="sourcePoint" />
            <mxPoint x="1407" y="404" as="targetPoint" />
          </mxGeometry>
        </mxCell>
        <mxCell id="xtmyJrNdlUx_TboR2gxm-31" value="" style="endArrow=none;html=1;rounded=0;entryX=1;entryY=1;entryDx=0;entryDy=0;exitX=0;exitY=0.5;exitDx=0;exitDy=0;" parent="1" source="xtmyJrNdlUx_TboR2gxm-23" target="xtmyJrNdlUx_TboR2gxm-18" edge="1">
          <mxGeometry width="50" height="50" relative="1" as="geometry">
            <mxPoint x="1383" y="537" as="sourcePoint" />
            <mxPoint x="1433" y="487" as="targetPoint" />
          </mxGeometry>
        </mxCell>
        <mxCell id="xtmyJrNdlUx_TboR2gxm-33" value="" style="endArrow=none;html=1;rounded=0;entryX=0;entryY=0;entryDx=0;entryDy=0;exitX=1;exitY=0.5;exitDx=0;exitDy=0;" parent="1" source="xtmyJrNdlUx_TboR2gxm-25" target="xtmyJrNdlUx_TboR2gxm-18" edge="1">
          <mxGeometry width="50" height="50" relative="1" as="geometry">
            <mxPoint x="1492" y="717" as="sourcePoint" />
            <mxPoint x="1542" y="667" as="targetPoint" />
          </mxGeometry>
        </mxCell>
        <mxCell id="xtmyJrNdlUx_TboR2gxm-34" value="" style="endArrow=none;html=1;rounded=0;entryX=1;entryY=1;entryDx=0;entryDy=0;exitX=0;exitY=0;exitDx=0;exitDy=0;" parent="1" source="xtmyJrNdlUx_TboR2gxm-24" target="xtmyJrNdlUx_TboR2gxm-18" edge="1">
          <mxGeometry width="50" height="50" relative="1" as="geometry">
            <mxPoint x="1564" y="620" as="sourcePoint" />
            <mxPoint x="1614" y="570" as="targetPoint" />
          </mxGeometry>
        </mxCell>
        <mxCell id="xtmyJrNdlUx_TboR2gxm-35" value="" style="endArrow=none;html=1;rounded=0;entryX=0.25;entryY=0;entryDx=0;entryDy=0;exitX=1;exitY=0.5;exitDx=0;exitDy=0;" parent="1" source="xtmyJrNdlUx_TboR2gxm-19" target="xtmyJrNdlUx_TboR2gxm-18" edge="1">
          <mxGeometry width="50" height="50" relative="1" as="geometry">
            <mxPoint x="1653" y="757" as="sourcePoint" />
            <mxPoint x="1703" y="707" as="targetPoint" />
          </mxGeometry>
        </mxCell>
        <mxCell id="xtmyJrNdlUx_TboR2gxm-36" value="" style="endArrow=none;html=1;rounded=0;entryX=0;entryY=0.5;entryDx=0;entryDy=0;exitX=1;exitY=0.5;exitDx=0;exitDy=0;" parent="1" source="xtmyJrNdlUx_TboR2gxm-26" target="xtmyJrNdlUx_TboR2gxm-18" edge="1">
          <mxGeometry width="50" height="50" relative="1" as="geometry">
            <mxPoint x="1333" y="680" as="sourcePoint" />
            <mxPoint x="1383" y="630" as="targetPoint" />
          </mxGeometry>
        </mxCell>
        <mxCell id="xtmyJrNdlUx_TboR2gxm-37" value="" style="endArrow=none;html=1;rounded=0;entryX=0;entryY=1;entryDx=0;entryDy=0;exitX=1;exitY=0.5;exitDx=0;exitDy=0;" parent="1" source="xtmyJrNdlUx_TboR2gxm-27" target="xtmyJrNdlUx_TboR2gxm-18" edge="1">
          <mxGeometry width="50" height="50" relative="1" as="geometry">
            <mxPoint x="1013" y="709" as="sourcePoint" />
            <mxPoint x="1063" y="659" as="targetPoint" />
          </mxGeometry>
        </mxCell>
        <mxCell id="xtmyJrNdlUx_TboR2gxm-38" value="" style="endArrow=none;html=1;rounded=0;entryX=0.25;entryY=1;entryDx=0;entryDy=0;exitX=0.5;exitY=0;exitDx=0;exitDy=0;" parent="1" source="xtmyJrNdlUx_TboR2gxm-28" target="xtmyJrNdlUx_TboR2gxm-18" edge="1">
          <mxGeometry width="50" height="50" relative="1" as="geometry">
            <mxPoint x="1152" y="792" as="sourcePoint" />
            <mxPoint x="1202" y="742" as="targetPoint" />
          </mxGeometry>
        </mxCell>
        <mxCell id="xtmyJrNdlUx_TboR2gxm-39" value="" style="endArrow=none;html=1;rounded=0;entryX=1;entryY=0;entryDx=0;entryDy=0;exitX=0;exitY=1;exitDx=0;exitDy=0;" parent="1" source="xtmyJrNdlUx_TboR2gxm-21" target="xtmyJrNdlUx_TboR2gxm-18" edge="1">
          <mxGeometry width="50" height="50" relative="1" as="geometry">
            <mxPoint x="1154" y="687" as="sourcePoint" />
            <mxPoint x="1204" y="637" as="targetPoint" />
          </mxGeometry>
        </mxCell>
        <mxCell id="xtmyJrNdlUx_TboR2gxm-41" value="ROOM" style="rounded=0;whiteSpace=wrap;html=1;" parent="1" vertex="1">
          <mxGeometry x="906" y="478" width="120" height="60" as="geometry" />
        </mxCell>
        <mxCell id="xtmyJrNdlUx_TboR2gxm-42" value="RoomNumber" style="ellipse;whiteSpace=wrap;html=1;" parent="1" vertex="1">
          <mxGeometry x="1061" y="478" width="98" height="45" as="geometry" />
        </mxCell>
        <mxCell id="xtmyJrNdlUx_TboR2gxm-43" value="Type" style="ellipse;whiteSpace=wrap;html=1;" parent="1" vertex="1">
          <mxGeometry x="1068" y="541" width="94" height="45" as="geometry" />
        </mxCell>
        <mxCell id="xtmyJrNdlUx_TboR2gxm-44" value="Status" style="ellipse;whiteSpace=wrap;html=1;" parent="1" vertex="1">
          <mxGeometry x="764" y="449" width="107" height="41" as="geometry" />
        </mxCell>
        <mxCell id="xtmyJrNdlUx_TboR2gxm-45" value="PricePerMonth" style="ellipse;whiteSpace=wrap;html=1;" parent="1" vertex="1">
          <mxGeometry x="773" y="523" width="110" height="44" as="geometry" />
        </mxCell>
        <mxCell id="xtmyJrNdlUx_TboR2gxm-47" value="PropertyID" style="ellipse;whiteSpace=wrap;html=1;" parent="1" vertex="1">
          <mxGeometry x="1013" y="405" width="98" height="42" as="geometry" />
        </mxCell>
        <mxCell id="xtmyJrNdlUx_TboR2gxm-48" value="&lt;u&gt;RoomID&lt;/u&gt;" style="ellipse;whiteSpace=wrap;html=1;" parent="1" vertex="1">
          <mxGeometry x="883" y="399" width="94" height="48" as="geometry" />
        </mxCell>
        <mxCell id="xtmyJrNdlUx_TboR2gxm-49" value="" style="endArrow=none;html=1;rounded=0;exitX=0.5;exitY=0;exitDx=0;exitDy=0;entryX=0;entryY=1;entryDx=0;entryDy=0;" parent="1" source="xtmyJrNdlUx_TboR2gxm-41" target="xtmyJrNdlUx_TboR2gxm-47" edge="1">
          <mxGeometry width="50" height="50" relative="1" as="geometry">
            <mxPoint x="1078" y="454" as="sourcePoint" />
            <mxPoint x="1128" y="404" as="targetPoint" />
          </mxGeometry>
        </mxCell>
        <mxCell id="xtmyJrNdlUx_TboR2gxm-50" value="" style="endArrow=none;html=1;rounded=0;exitX=1;exitY=0.5;exitDx=0;exitDy=0;entryX=0;entryY=0.5;entryDx=0;entryDy=0;" parent="1" source="xtmyJrNdlUx_TboR2gxm-41" target="xtmyJrNdlUx_TboR2gxm-42" edge="1">
          <mxGeometry width="50" height="50" relative="1" as="geometry">
            <mxPoint x="1275" y="557" as="sourcePoint" />
            <mxPoint x="1325" y="507" as="targetPoint" />
          </mxGeometry>
        </mxCell>
        <mxCell id="xtmyJrNdlUx_TboR2gxm-51" value="" style="endArrow=none;html=1;rounded=0;exitX=1;exitY=1;exitDx=0;exitDy=0;entryX=0;entryY=0.25;entryDx=0;entryDy=0;" parent="1" source="xtmyJrNdlUx_TboR2gxm-44" target="xtmyJrNdlUx_TboR2gxm-41" edge="1">
          <mxGeometry width="50" height="50" relative="1" as="geometry">
            <mxPoint x="1298" y="580" as="sourcePoint" />
            <mxPoint x="1348" y="530" as="targetPoint" />
          </mxGeometry>
        </mxCell>
        <mxCell id="xtmyJrNdlUx_TboR2gxm-52" value="" style="endArrow=none;html=1;rounded=0;exitX=1;exitY=0.5;exitDx=0;exitDy=0;entryX=0;entryY=1;entryDx=0;entryDy=0;" parent="1" source="xtmyJrNdlUx_TboR2gxm-45" target="xtmyJrNdlUx_TboR2gxm-41" edge="1">
          <mxGeometry width="50" height="50" relative="1" as="geometry">
            <mxPoint x="1374" y="706" as="sourcePoint" />
            <mxPoint x="1424" y="656" as="targetPoint" />
          </mxGeometry>
        </mxCell>
        <mxCell id="xtmyJrNdlUx_TboR2gxm-53" value="" style="endArrow=none;html=1;rounded=0;exitX=0.5;exitY=1;exitDx=0;exitDy=0;entryX=0;entryY=0.5;entryDx=0;entryDy=0;" parent="1" source="xtmyJrNdlUx_TboR2gxm-41" target="xtmyJrNdlUx_TboR2gxm-43" edge="1">
          <mxGeometry width="50" height="50" relative="1" as="geometry">
            <mxPoint x="1202" y="713" as="sourcePoint" />
            <mxPoint x="1252" y="663" as="targetPoint" />
          </mxGeometry>
        </mxCell>
        <mxCell id="xtmyJrNdlUx_TboR2gxm-54" value="" style="endArrow=none;html=1;rounded=0;exitX=0.25;exitY=0;exitDx=0;exitDy=0;entryX=0.5;entryY=1;entryDx=0;entryDy=0;" parent="1" source="xtmyJrNdlUx_TboR2gxm-41" target="xtmyJrNdlUx_TboR2gxm-48" edge="1">
          <mxGeometry width="50" height="50" relative="1" as="geometry">
            <mxPoint x="1157" y="717" as="sourcePoint" />
            <mxPoint x="1207" y="667" as="targetPoint" />
          </mxGeometry>
        </mxCell>
        <mxCell id="xtmyJrNdlUx_TboR2gxm-55" value="BOOKING" style="rounded=0;whiteSpace=wrap;html=1;" parent="1" vertex="1">
          <mxGeometry x="1446" y="510" width="120" height="60" as="geometry" />
        </mxCell>
        <mxCell id="xtmyJrNdlUx_TboR2gxm-56" value="RoomID" style="ellipse;whiteSpace=wrap;html=1;" parent="1" vertex="1">
          <mxGeometry x="1514" y="389" width="98" height="56" as="geometry" />
        </mxCell>
        <mxCell id="xtmyJrNdlUx_TboR2gxm-57" value="UserID" style="ellipse;whiteSpace=wrap;html=1;" parent="1" vertex="1">
          <mxGeometry x="1612" y="445" width="98" height="56" as="geometry" />
        </mxCell>
        <mxCell id="xtmyJrNdlUx_TboR2gxm-58" value="StartDate" style="ellipse;whiteSpace=wrap;html=1;" parent="1" vertex="1">
          <mxGeometry x="1650" y="532" width="98" height="56" as="geometry" />
        </mxCell>
        <mxCell id="xtmyJrNdlUx_TboR2gxm-59" value="EndDate" style="ellipse;whiteSpace=wrap;html=1;" parent="1" vertex="1">
          <mxGeometry x="1664" y="612" width="98" height="56" as="geometry" />
        </mxCell>
        <mxCell id="xtmyJrNdlUx_TboR2gxm-60" value="&lt;u&gt;BookingID&lt;/u&gt;" style="ellipse;whiteSpace=wrap;html=1;" parent="1" vertex="1">
          <mxGeometry x="1392" y="415" width="98" height="56" as="geometry" />
        </mxCell>
        <mxCell id="xtmyJrNdlUx_TboR2gxm-61" value="TotalAmount" style="ellipse;whiteSpace=wrap;html=1;" parent="1" vertex="1">
          <mxGeometry x="1324" y="506" width="98" height="56" as="geometry" />
        </mxCell>
        <mxCell id="xtmyJrNdlUx_TboR2gxm-62" value="BookingStatus" style="ellipse;whiteSpace=wrap;html=1;" parent="1" vertex="1">
          <mxGeometry x="1331" y="594" width="98" height="56" as="geometry" />
        </mxCell>
        <mxCell id="xtmyJrNdlUx_TboR2gxm-65" value="" style="endArrow=none;html=1;rounded=0;exitX=0.5;exitY=0;exitDx=0;exitDy=0;entryX=0.5;entryY=1;entryDx=0;entryDy=0;" parent="1" source="xtmyJrNdlUx_TboR2gxm-55" target="xtmyJrNdlUx_TboR2gxm-56" edge="1">
          <mxGeometry width="50" height="50" relative="1" as="geometry">
            <mxPoint x="1549" y="454" as="sourcePoint" />
            <mxPoint x="1599" y="404" as="targetPoint" />
          </mxGeometry>
        </mxCell>
        <mxCell id="xtmyJrNdlUx_TboR2gxm-66" value="" style="endArrow=none;html=1;rounded=0;exitX=1;exitY=0.5;exitDx=0;exitDy=0;entryX=0;entryY=0.5;entryDx=0;entryDy=0;" parent="1" source="xtmyJrNdlUx_TboR2gxm-55" target="xtmyJrNdlUx_TboR2gxm-58" edge="1">
          <mxGeometry width="50" height="50" relative="1" as="geometry">
            <mxPoint x="1809" y="495" as="sourcePoint" />
            <mxPoint x="1859" y="445" as="targetPoint" />
          </mxGeometry>
        </mxCell>
        <mxCell id="xtmyJrNdlUx_TboR2gxm-67" value="" style="endArrow=none;html=1;rounded=0;exitX=1;exitY=0.75;exitDx=0;exitDy=0;" parent="1" source="xtmyJrNdlUx_TboR2gxm-55" target="xtmyJrNdlUx_TboR2gxm-59" edge="1">
          <mxGeometry width="50" height="50" relative="1" as="geometry">
            <mxPoint x="1842" y="523" as="sourcePoint" />
            <mxPoint x="1892" y="473" as="targetPoint" />
          </mxGeometry>
        </mxCell>
        <mxCell id="xtmyJrNdlUx_TboR2gxm-68" value="" style="endArrow=none;html=1;rounded=0;exitX=0.5;exitY=0;exitDx=0;exitDy=0;entryX=0;entryY=0.75;entryDx=0;entryDy=0;" parent="1" source="xtmyJrNdlUx_TboR2gxm-62" target="xtmyJrNdlUx_TboR2gxm-55" edge="1">
          <mxGeometry width="50" height="50" relative="1" as="geometry">
            <mxPoint x="1960" y="726" as="sourcePoint" />
            <mxPoint x="2010" y="676" as="targetPoint" />
          </mxGeometry>
        </mxCell>
        <mxCell id="xtmyJrNdlUx_TboR2gxm-70" value="" style="endArrow=none;html=1;rounded=0;exitX=1;exitY=0.5;exitDx=0;exitDy=0;entryX=0;entryY=0.5;entryDx=0;entryDy=0;" parent="1" source="xtmyJrNdlUx_TboR2gxm-61" target="xtmyJrNdlUx_TboR2gxm-55" edge="1">
          <mxGeometry width="50" height="50" relative="1" as="geometry">
            <mxPoint x="1977" y="659" as="sourcePoint" />
            <mxPoint x="2027" y="609" as="targetPoint" />
          </mxGeometry>
        </mxCell>
        <mxCell id="xtmyJrNdlUx_TboR2gxm-71" value="" style="endArrow=none;html=1;rounded=0;exitX=0.5;exitY=1;exitDx=0;exitDy=0;entryX=0.25;entryY=0;entryDx=0;entryDy=0;" parent="1" source="xtmyJrNdlUx_TboR2gxm-60" target="xtmyJrNdlUx_TboR2gxm-55" edge="1">
          <mxGeometry width="50" height="50" relative="1" as="geometry">
            <mxPoint x="1904" y="597" as="sourcePoint" />
            <mxPoint x="1954" y="547" as="targetPoint" />
          </mxGeometry>
        </mxCell>
        <mxCell id="xtmyJrNdlUx_TboR2gxm-72" value="" style="endArrow=none;html=1;rounded=0;exitX=1;exitY=0;exitDx=0;exitDy=0;entryX=0;entryY=0.5;entryDx=0;entryDy=0;" parent="1" source="xtmyJrNdlUx_TboR2gxm-55" target="xtmyJrNdlUx_TboR2gxm-57" edge="1">
          <mxGeometry width="50" height="50" relative="1" as="geometry">
            <mxPoint x="1810" y="732" as="sourcePoint" />
            <mxPoint x="1860" y="682" as="targetPoint" />
          </mxGeometry>
        </mxCell>
        <mxCell id="xtmyJrNdlUx_TboR2gxm-73" value="PAYMENT" style="rounded=0;whiteSpace=wrap;html=1;" parent="1" vertex="1">
          <mxGeometry x="886" y="770" width="120" height="60" as="geometry" />
        </mxCell>
        <mxCell id="xtmyJrNdlUx_TboR2gxm-74" value="&lt;u&gt;PaymentID&lt;/u&gt;" style="ellipse;whiteSpace=wrap;html=1;" parent="1" vertex="1">
          <mxGeometry x="857" y="692" width="90" height="52" as="geometry" />
        </mxCell>
        <mxCell id="xtmyJrNdlUx_TboR2gxm-75" value="BookingID" style="ellipse;whiteSpace=wrap;html=1;" parent="1" vertex="1">
          <mxGeometry x="958" y="708" width="80" height="43" as="geometry" />
        </mxCell>
        <mxCell id="xtmyJrNdlUx_TboR2gxm-76" value="UserID" style="ellipse;whiteSpace=wrap;html=1;" parent="1" vertex="1">
          <mxGeometry x="1026" y="758" width="106" height="57" as="geometry" />
        </mxCell>
        <mxCell id="xtmyJrNdlUx_TboR2gxm-77" value="PaymentStatus" style="ellipse;whiteSpace=wrap;html=1;" parent="1" vertex="1">
          <mxGeometry x="665" y="895" width="129" height="52" as="geometry" />
        </mxCell>
        <mxCell id="xtmyJrNdlUx_TboR2gxm-78" value="AmountPaid" style="ellipse;whiteSpace=wrap;html=1;" parent="1" vertex="1">
          <mxGeometry x="1092" y="825" width="114" height="51" as="geometry" />
        </mxCell>
        <mxCell id="xtmyJrNdlUx_TboR2gxm-79" value="PaymentDate" style="ellipse;whiteSpace=wrap;html=1;" parent="1" vertex="1">
          <mxGeometry x="638" y="841" width="132" height="40" as="geometry" />
        </mxCell>
        <mxCell id="xtmyJrNdlUx_TboR2gxm-80" value="PaymentMethod" style="ellipse;whiteSpace=wrap;html=1;" parent="1" vertex="1">
          <mxGeometry x="708" y="720" width="110" height="50" as="geometry" />
        </mxCell>
        <mxCell id="xtmyJrNdlUx_TboR2gxm-81" value="TransactionID" style="ellipse;whiteSpace=wrap;html=1;" parent="1" vertex="1">
          <mxGeometry x="685" y="795" width="88" height="32" as="geometry" />
        </mxCell>
        <mxCell id="xtmyJrNdlUx_TboR2gxm-82" value="" style="endArrow=none;html=1;rounded=0;exitX=1;exitY=0.5;exitDx=0;exitDy=0;entryX=0;entryY=1;entryDx=0;entryDy=0;" parent="1" source="xtmyJrNdlUx_TboR2gxm-79" target="xtmyJrNdlUx_TboR2gxm-73" edge="1">
          <mxGeometry width="50" height="50" relative="1" as="geometry">
            <mxPoint x="1179" y="714" as="sourcePoint" />
            <mxPoint x="1229" y="664" as="targetPoint" />
          </mxGeometry>
        </mxCell>
        <mxCell id="xtmyJrNdlUx_TboR2gxm-83" value="" style="endArrow=none;html=1;rounded=0;exitX=1;exitY=0;exitDx=0;exitDy=0;entryX=0.25;entryY=1;entryDx=0;entryDy=0;" parent="1" source="xtmyJrNdlUx_TboR2gxm-77" target="xtmyJrNdlUx_TboR2gxm-73" edge="1">
          <mxGeometry width="50" height="50" relative="1" as="geometry">
            <mxPoint x="1208" y="744" as="sourcePoint" />
            <mxPoint x="916" y="835" as="targetPoint" />
          </mxGeometry>
        </mxCell>
        <mxCell id="xtmyJrNdlUx_TboR2gxm-84" value="" style="endArrow=none;html=1;rounded=0;exitX=1;exitY=0.5;exitDx=0;exitDy=0;entryX=0;entryY=0.25;entryDx=0;entryDy=0;" parent="1" source="xtmyJrNdlUx_TboR2gxm-80" target="xtmyJrNdlUx_TboR2gxm-73" edge="1">
          <mxGeometry width="50" height="50" relative="1" as="geometry">
            <mxPoint x="1323" y="882" as="sourcePoint" />
            <mxPoint x="1373" y="832" as="targetPoint" />
          </mxGeometry>
        </mxCell>
        <mxCell id="xtmyJrNdlUx_TboR2gxm-85" value="" style="endArrow=none;html=1;rounded=0;exitX=1;exitY=0.5;exitDx=0;exitDy=0;entryX=0;entryY=0.5;entryDx=0;entryDy=0;" parent="1" source="xtmyJrNdlUx_TboR2gxm-81" target="xtmyJrNdlUx_TboR2gxm-73" edge="1">
          <mxGeometry width="50" height="50" relative="1" as="geometry">
            <mxPoint x="1396" y="960" as="sourcePoint" />
            <mxPoint x="1446" y="910" as="targetPoint" />
          </mxGeometry>
        </mxCell>
        <mxCell id="xtmyJrNdlUx_TboR2gxm-86" value="" style="endArrow=none;html=1;rounded=0;entryX=0;entryY=0.5;entryDx=0;entryDy=0;exitX=1;exitY=0.75;exitDx=0;exitDy=0;" parent="1" source="xtmyJrNdlUx_TboR2gxm-73" target="xtmyJrNdlUx_TboR2gxm-78" edge="1">
          <mxGeometry width="50" height="50" relative="1" as="geometry">
            <mxPoint x="1082" y="1085" as="sourcePoint" />
            <mxPoint x="1132" y="1035" as="targetPoint" />
          </mxGeometry>
        </mxCell>
        <mxCell id="xtmyJrNdlUx_TboR2gxm-87" value="" style="endArrow=none;html=1;rounded=0;entryX=0;entryY=1;entryDx=0;entryDy=0;exitX=1;exitY=0.5;exitDx=0;exitDy=0;" parent="1" source="xtmyJrNdlUx_TboR2gxm-73" target="xtmyJrNdlUx_TboR2gxm-76" edge="1">
          <mxGeometry width="50" height="50" relative="1" as="geometry">
            <mxPoint x="1051" y="1039" as="sourcePoint" />
            <mxPoint x="1101" y="989" as="targetPoint" />
          </mxGeometry>
        </mxCell>
        <mxCell id="xtmyJrNdlUx_TboR2gxm-88" value="" style="endArrow=none;html=1;rounded=0;exitX=0.5;exitY=1;exitDx=0;exitDy=0;entryX=0.5;entryY=0;entryDx=0;entryDy=0;" parent="1" source="xtmyJrNdlUx_TboR2gxm-75" target="xtmyJrNdlUx_TboR2gxm-73" edge="1">
          <mxGeometry width="50" height="50" relative="1" as="geometry">
            <mxPoint x="966" y="1029" as="sourcePoint" />
            <mxPoint x="1016" y="979" as="targetPoint" />
          </mxGeometry>
        </mxCell>
        <mxCell id="xtmyJrNdlUx_TboR2gxm-89" value="" style="endArrow=none;html=1;rounded=0;entryX=0.25;entryY=0;entryDx=0;entryDy=0;exitX=0.5;exitY=1;exitDx=0;exitDy=0;" parent="1" source="xtmyJrNdlUx_TboR2gxm-74" target="xtmyJrNdlUx_TboR2gxm-73" edge="1">
          <mxGeometry width="50" height="50" relative="1" as="geometry">
            <mxPoint x="889" y="1060" as="sourcePoint" />
            <mxPoint x="939" y="1010" as="targetPoint" />
          </mxGeometry>
        </mxCell>
        <mxCell id="xtmyJrNdlUx_TboR2gxm-91" value="EXPENSE CATEGORY" style="rounded=0;whiteSpace=wrap;html=1;" parent="1" vertex="1">
          <mxGeometry x="1474" y="784" width="120" height="60" as="geometry" />
        </mxCell>
        <mxCell id="xtmyJrNdlUx_TboR2gxm-92" value="CategoryName" style="ellipse;whiteSpace=wrap;html=1;" parent="1" vertex="1">
          <mxGeometry x="1643" y="874" width="120" height="42" as="geometry" />
        </mxCell>
        <mxCell id="xtmyJrNdlUx_TboR2gxm-93" value="&lt;u&gt;CategoryID&lt;/u&gt;" style="ellipse;whiteSpace=wrap;html=1;" parent="1" vertex="1">
          <mxGeometry x="1631.5" y="810" width="135" height="49" as="geometry" />
        </mxCell>
        <mxCell id="xtmyJrNdlUx_TboR2gxm-94" value="" style="endArrow=none;html=1;rounded=0;entryX=0;entryY=0.5;entryDx=0;entryDy=0;exitX=0.75;exitY=1;exitDx=0;exitDy=0;" parent="1" source="xtmyJrNdlUx_TboR2gxm-91" target="xtmyJrNdlUx_TboR2gxm-92" edge="1">
          <mxGeometry width="50" height="50" relative="1" as="geometry">
            <mxPoint x="1179" y="714" as="sourcePoint" />
            <mxPoint x="1229" y="664" as="targetPoint" />
          </mxGeometry>
        </mxCell>
        <mxCell id="xtmyJrNdlUx_TboR2gxm-95" value="" style="endArrow=none;html=1;rounded=0;entryX=0;entryY=0.5;entryDx=0;entryDy=0;exitX=1;exitY=0.75;exitDx=0;exitDy=0;" parent="1" source="xtmyJrNdlUx_TboR2gxm-91" target="xtmyJrNdlUx_TboR2gxm-93" edge="1">
          <mxGeometry width="50" height="50" relative="1" as="geometry">
            <mxPoint x="1181" y="934" as="sourcePoint" />
            <mxPoint x="1231" y="884" as="targetPoint" />
          </mxGeometry>
        </mxCell>
        <mxCell id="xtmyJrNdlUx_TboR2gxm-96" value="EXPENSE" style="rounded=0;whiteSpace=wrap;html=1;" parent="1" vertex="1">
          <mxGeometry x="1241" y="1044" width="120" height="60" as="geometry" />
        </mxCell>
        <mxCell id="xtmyJrNdlUx_TboR2gxm-97" value="&lt;u&gt;ExpenseID&lt;/u&gt;" style="ellipse;whiteSpace=wrap;html=1;" parent="1" vertex="1">
          <mxGeometry x="1201" y="947" width="147" height="57" as="geometry" />
        </mxCell>
        <mxCell id="xtmyJrNdlUx_TboR2gxm-98" value="UserID" style="ellipse;whiteSpace=wrap;html=1;" parent="1" vertex="1">
          <mxGeometry x="1395" y="1145" width="111" height="49" as="geometry" />
        </mxCell>
        <mxCell id="xtmyJrNdlUx_TboR2gxm-99" value="CategoryID" style="ellipse;whiteSpace=wrap;html=1;" parent="1" vertex="1">
          <mxGeometry x="1277" y="1183.5" width="112" height="56" as="geometry" />
        </mxCell>
        <mxCell id="xtmyJrNdlUx_TboR2gxm-100" value="Amount" style="ellipse;whiteSpace=wrap;html=1;" parent="1" vertex="1">
          <mxGeometry x="1162" y="1193" width="99" height="37" as="geometry" />
        </mxCell>
        <mxCell id="xtmyJrNdlUx_TboR2gxm-101" value="Date" style="ellipse;whiteSpace=wrap;html=1;" parent="1" vertex="1">
          <mxGeometry x="1050" y="1134" width="104" height="39" as="geometry" />
        </mxCell>
        <mxCell id="xtmyJrNdlUx_TboR2gxm-102" value="Description" style="ellipse;whiteSpace=wrap;html=1;" parent="1" vertex="1">
          <mxGeometry x="1050" y="998" width="120" height="80" as="geometry" />
        </mxCell>
        <mxCell id="xtmyJrNdlUx_TboR2gxm-103" value="" style="endArrow=none;html=1;rounded=0;entryX=0.5;entryY=1;entryDx=0;entryDy=0;exitX=0.25;exitY=0;exitDx=0;exitDy=0;" parent="1" source="xtmyJrNdlUx_TboR2gxm-96" target="xtmyJrNdlUx_TboR2gxm-97" edge="1">
          <mxGeometry width="50" height="50" relative="1" as="geometry">
            <mxPoint x="1396" y="1154" as="sourcePoint" />
            <mxPoint x="1446" y="1104" as="targetPoint" />
          </mxGeometry>
        </mxCell>
        <mxCell id="xtmyJrNdlUx_TboR2gxm-104" value="" style="endArrow=none;html=1;rounded=0;entryX=1;entryY=1;entryDx=0;entryDy=0;exitX=0;exitY=0.5;exitDx=0;exitDy=0;" parent="1" source="xtmyJrNdlUx_TboR2gxm-96" target="xtmyJrNdlUx_TboR2gxm-102" edge="1">
          <mxGeometry width="50" height="50" relative="1" as="geometry">
            <mxPoint x="1522" y="1408" as="sourcePoint" />
            <mxPoint x="1572" y="1358" as="targetPoint" />
          </mxGeometry>
        </mxCell>
        <mxCell id="xtmyJrNdlUx_TboR2gxm-105" value="" style="endArrow=none;html=1;rounded=0;exitX=1;exitY=0.5;exitDx=0;exitDy=0;entryX=0.25;entryY=1;entryDx=0;entryDy=0;" parent="1" source="xtmyJrNdlUx_TboR2gxm-101" target="xtmyJrNdlUx_TboR2gxm-96" edge="1">
          <mxGeometry width="50" height="50" relative="1" as="geometry">
            <mxPoint x="1437" y="1413" as="sourcePoint" />
            <mxPoint x="1487" y="1363" as="targetPoint" />
          </mxGeometry>
        </mxCell>
        <mxCell id="xtmyJrNdlUx_TboR2gxm-106" value="" style="endArrow=none;html=1;rounded=0;entryX=0.5;entryY=0;entryDx=0;entryDy=0;exitX=0.5;exitY=1;exitDx=0;exitDy=0;" parent="1" source="xtmyJrNdlUx_TboR2gxm-96" target="xtmyJrNdlUx_TboR2gxm-100" edge="1">
          <mxGeometry width="50" height="50" relative="1" as="geometry">
            <mxPoint x="1334" y="1454" as="sourcePoint" />
            <mxPoint x="1384" y="1404" as="targetPoint" />
          </mxGeometry>
        </mxCell>
        <mxCell id="xtmyJrNdlUx_TboR2gxm-107" value="" style="endArrow=none;html=1;rounded=0;entryX=0;entryY=0;entryDx=0;entryDy=0;exitX=0.75;exitY=1;exitDx=0;exitDy=0;" parent="1" source="xtmyJrNdlUx_TboR2gxm-96" target="xtmyJrNdlUx_TboR2gxm-99" edge="1">
          <mxGeometry width="50" height="50" relative="1" as="geometry">
            <mxPoint x="1281" y="1438" as="sourcePoint" />
            <mxPoint x="1331" y="1388" as="targetPoint" />
          </mxGeometry>
        </mxCell>
        <mxCell id="xtmyJrNdlUx_TboR2gxm-108" value="" style="endArrow=none;html=1;rounded=0;entryX=0;entryY=0.5;entryDx=0;entryDy=0;exitX=1;exitY=0.5;exitDx=0;exitDy=0;" parent="1" source="xtmyJrNdlUx_TboR2gxm-96" target="xtmyJrNdlUx_TboR2gxm-98" edge="1">
          <mxGeometry width="50" height="50" relative="1" as="geometry">
            <mxPoint x="1152" y="1443" as="sourcePoint" />
            <mxPoint x="1202" y="1393" as="targetPoint" />
          </mxGeometry>
        </mxCell>
        <mxCell id="xtmyJrNdlUx_TboR2gxm-109" value="BUYS" style="rhombus;whiteSpace=wrap;html=1;" parent="1" vertex="1">
          <mxGeometry x="1206" y="369" width="80" height="80" as="geometry" />
        </mxCell>
        <mxCell id="xtmyJrNdlUx_TboR2gxm-111" value="" style="endArrow=classic;html=1;rounded=0;entryX=0.5;entryY=1;entryDx=0;entryDy=0;exitX=0;exitY=0.5;exitDx=0;exitDy=0;" parent="1" source="xtmyJrNdlUx_TboR2gxm-109" target="xtmyJrNdlUx_TboR2gxm-1" edge="1">
          <mxGeometry width="50" height="50" relative="1" as="geometry">
            <mxPoint x="1336" y="690" as="sourcePoint" />
            <mxPoint x="1386" y="640" as="targetPoint" />
          </mxGeometry>
        </mxCell>
        <mxCell id="xtmyJrNdlUx_TboR2gxm-113" value="HAS&amp;nbsp;" style="rhombus;whiteSpace=wrap;html=1;" parent="1" vertex="1">
          <mxGeometry x="1187" y="616" width="80" height="80" as="geometry" />
        </mxCell>
        <mxCell id="xtmyJrNdlUx_TboR2gxm-122" style="edgeStyle=orthogonalEdgeStyle;rounded=0;orthogonalLoop=1;jettySize=auto;html=1;entryX=0.5;entryY=1;entryDx=0;entryDy=0;exitX=0.5;exitY=1;exitDx=0;exitDy=0;" parent="1" source="xtmyJrNdlUx_TboR2gxm-119" target="xtmyJrNdlUx_TboR2gxm-73" edge="1">
          <mxGeometry relative="1" as="geometry" />
        </mxCell>
        <mxCell id="xtmyJrNdlUx_TboR2gxm-116" value="CAN HAVE" style="rhombus;whiteSpace=wrap;html=1;" parent="1" vertex="1">
          <mxGeometry x="1262" y="708" width="80" height="80" as="geometry" />
        </mxCell>
        <mxCell id="xtmyJrNdlUx_TboR2gxm-117" value="" style="endArrow=classic;html=1;rounded=0;exitX=0;exitY=0.5;exitDx=0;exitDy=0;entryX=0.25;entryY=1;entryDx=0;entryDy=0;" parent="1" source="xtmyJrNdlUx_TboR2gxm-116" target="xtmyJrNdlUx_TboR2gxm-41" edge="1">
          <mxGeometry width="50" height="50" relative="1" as="geometry">
            <mxPoint x="1318" y="692" as="sourcePoint" />
            <mxPoint x="1368" y="642" as="targetPoint" />
          </mxGeometry>
        </mxCell>
        <mxCell id="xtmyJrNdlUx_TboR2gxm-118" value="" style="endArrow=none;html=1;rounded=0;exitX=1;exitY=0.5;exitDx=0;exitDy=0;entryX=0.626;entryY=0.969;entryDx=0;entryDy=0;entryPerimeter=0;" parent="1" source="xtmyJrNdlUx_TboR2gxm-116" target="xtmyJrNdlUx_TboR2gxm-55" edge="1">
          <mxGeometry width="50" height="50" relative="1" as="geometry">
            <mxPoint x="1318" y="692" as="sourcePoint" />
            <mxPoint x="1368" y="642" as="targetPoint" />
          </mxGeometry>
        </mxCell>
        <mxCell id="xtmyJrNdlUx_TboR2gxm-119" value="HAVE" style="rhombus;whiteSpace=wrap;html=1;" parent="1" vertex="1">
          <mxGeometry x="1312" y="810.5" width="80" height="80" as="geometry" />
        </mxCell>
        <mxCell id="xtmyJrNdlUx_TboR2gxm-123" value="" style="endArrow=classic;html=1;rounded=0;exitX=0.5;exitY=0;exitDx=0;exitDy=0;entryX=0.876;entryY=0.987;entryDx=0;entryDy=0;entryPerimeter=0;" parent="1" source="xtmyJrNdlUx_TboR2gxm-119" target="xtmyJrNdlUx_TboR2gxm-55" edge="1">
          <mxGeometry width="50" height="50" relative="1" as="geometry">
            <mxPoint x="1318" y="671" as="sourcePoint" />
            <mxPoint x="1533" y="577" as="targetPoint" />
          </mxGeometry>
        </mxCell>
        <mxCell id="xtmyJrNdlUx_TboR2gxm-125" value="CAN BE" style="rhombus;whiteSpace=wrap;html=1;" parent="1" vertex="1">
          <mxGeometry x="1474" y="964" width="80" height="80" as="geometry" />
        </mxCell>
        <mxCell id="xtmyJrNdlUx_TboR2gxm-126" value="" style="endArrow=classic;html=1;rounded=0;exitX=1;exitY=0.5;exitDx=0;exitDy=0;entryX=0.5;entryY=1;entryDx=0;entryDy=0;" parent="1" source="xtmyJrNdlUx_TboR2gxm-125" target="xtmyJrNdlUx_TboR2gxm-91" edge="1">
          <mxGeometry width="50" height="50" relative="1" as="geometry">
            <mxPoint x="1318" y="671" as="sourcePoint" />
            <mxPoint x="1368" y="621" as="targetPoint" />
          </mxGeometry>
        </mxCell>
        <mxCell id="xtmyJrNdlUx_TboR2gxm-127" value="" style="endArrow=none;html=1;rounded=0;exitX=0;exitY=0.5;exitDx=0;exitDy=0;entryX=1;entryY=0.25;entryDx=0;entryDy=0;" parent="1" source="xtmyJrNdlUx_TboR2gxm-125" target="xtmyJrNdlUx_TboR2gxm-96" edge="1">
          <mxGeometry width="50" height="50" relative="1" as="geometry">
            <mxPoint x="1318" y="671" as="sourcePoint" />
            <mxPoint x="1368" y="621" as="targetPoint" />
          </mxGeometry>
        </mxCell>
        <mxCell id="xtmyJrNdlUx_TboR2gxm-129" value="HAS" style="rhombus;whiteSpace=wrap;html=1;" parent="1" vertex="1">
          <mxGeometry x="572" y="562" width="80" height="80" as="geometry" />
        </mxCell>
        <mxCell id="xtmyJrNdlUx_TboR2gxm-135" value="" style="endArrow=none;html=1;rounded=0;exitX=0;exitY=0.5;exitDx=0;exitDy=0;" parent="1" source="xtmyJrNdlUx_TboR2gxm-129" edge="1">
          <mxGeometry width="50" height="50" relative="1" as="geometry">
            <mxPoint x="1334" y="580" as="sourcePoint" />
            <mxPoint x="520" y="972" as="targetPoint" />
          </mxGeometry>
        </mxCell>
        <mxCell id="xtmyJrNdlUx_TboR2gxm-138" value="" style="endArrow=none;html=1;rounded=0;exitX=0;exitY=0.5;exitDx=0;exitDy=0;entryX=0.5;entryY=1;entryDx=0;entryDy=0;" parent="1" source="xtmyJrNdlUx_TboR2gxm-113" target="xtmyJrNdlUx_TboR2gxm-41" edge="1">
          <mxGeometry width="50" height="50" relative="1" as="geometry">
            <mxPoint x="1334" y="580" as="sourcePoint" />
            <mxPoint x="1384" y="530" as="targetPoint" />
          </mxGeometry>
        </mxCell>
      </root>
    </mxGraphModel>
  </diagram>
</mxfile>
